<?xml version="1.0" encoding="UTF-8" standalone="no"?>
<!-- Created with Inkscape (http://www.inkscape.org/) -->

<svg
   xmlns:dc="http://purl.org/dc/elements/1.1/"
   xmlns:cc="http://creativecommons.org/ns#"
   xmlns:rdf="http://www.w3.org/1999/02/22-rdf-syntax-ns#"
   xmlns:svg="http://www.w3.org/2000/svg"
   xmlns="http://www.w3.org/2000/svg"
   xmlns:sodipodi="http://sodipodi.sourceforge.net/DTD/sodipodi-0.dtd"
   xmlns:inkscape="http://www.inkscape.org/namespaces/inkscape"
   width="16"
   height="16"
   viewBox="0 0 4.2333332 4.2333335"
   version="1.1"
   id="svg8"
   inkscape:version="0.92.4 (unknown)"
   sodipodi:docname="reducer.svg">
  <defs
     id="defs2" />
  <sodipodi:namedview
     id="base"
     pagecolor="#ffffff"
     bordercolor="#666666"
     borderopacity="1.0"
     inkscape:pageopacity="0.0"
     inkscape:pageshadow="2"
     inkscape:zoom="11.2"
     inkscape:cx="7.3408054"
     inkscape:cy="4.6129976"
     inkscape:document-units="mm"
     inkscape:current-layer="g839"
     showgrid="false"
     units="px"
     inkscape:showpageshadow="false"
     inkscape:window-width="1192"
     inkscape:window-height="663"
     inkscape:window-x="691"
     inkscape:window-y="343"
     inkscape:window-maximized="0" />
  <metadata
     id="metadata5">
    <rdf:RDF>
      <cc:Work
         rdf:about="">
        <dc:format>image/svg+xml</dc:format>
        <dc:type
           rdf:resource="http://purl.org/dc/dcmitype/StillImage" />
        <dc:title />
        <cc:license
           rdf:resource="http://creativecommons.org/licenses/by-nc-sa/4.0/" />
        <dc:creator>
          <cc:Agent>
            <dc:title>Jean-cédric Thérond</dc:title>
          </cc:Agent>
        </dc:creator>
      </cc:Work>
      <cc:License
         rdf:about="http://creativecommons.org/licenses/by-nc-sa/4.0/">
        <cc:permits
           rdf:resource="http://creativecommons.org/ns#Reproduction" />
        <cc:permits
           rdf:resource="http://creativecommons.org/ns#Distribution" />
        <cc:requires
           rdf:resource="http://creativecommons.org/ns#Notice" />
        <cc:requires
           rdf:resource="http://creativecommons.org/ns#Attribution" />
        <cc:prohibits
           rdf:resource="http://creativecommons.org/ns#CommercialUse" />
        <cc:permits
           rdf:resource="http://creativecommons.org/ns#DerivativeWorks" />
        <cc:requires
           rdf:resource="http://creativecommons.org/ns#ShareAlike" />
      </cc:License>
    </rdf:RDF>
  </metadata>
  <g
     inkscape:label="Calque 1"
     inkscape:groupmode="layer"
     id="layer1"
     transform="translate(0,-292.76665)"
     style="opacity:0.97">
    <g
       id="g839"
       transform="translate(-51.215773,-10.583333)">
      <path
         style="fill:#8052c3;stroke-width:0.0154435"
         d="m 52.223149,307.29778 c -0.493774,-0.0968 -0.764699,-0.44937 -0.741405,-0.96495 0.0137,-0.30328 0.119315,-0.53798 0.353822,-0.7863 0.154605,-0.16371 0.149615,-0.16296 0.184274,-0.0276 l 0.01942,0.0759 -0.111821,0.12228 c -0.133301,0.14578 -0.198557,0.25034 -0.246683,0.39528 -0.07198,0.21677 -0.06207,0.39801 0.03287,0.60154 0.06399,0.13715 0.192518,0.27354 0.31216,0.33123 0.232207,0.11197 0.549721,0.11209 0.85147,2.3e-4 0.237517,-0.088 0.561229,-0.31123 0.730785,-0.504 0.09683,-0.11009 0.24781,-0.34381 0.24781,-0.38361 0,-0.0139 -0.01355,-0.052 -0.03009,-0.0845 -0.08285,-0.16282 0.01234,-0.35974 0.183729,-0.38009 0.123411,-0.0147 0.237639,0.0788 0.261937,0.21418 0.01985,0.11062 -0.07055,0.25653 -0.173725,0.2804 -0.03616,0.009 -0.05765,0.0338 -0.111554,0.13209 -0.29325,0.5347 -0.753822,0.87057 -1.339856,0.9771 -0.158223,0.0288 -0.279244,0.029 -0.423133,6.9e-4 z m 1.745557,0.005 c -0.09247,-0.0179 -0.305492,-0.0907 -0.315477,-0.10773 -0.004,-0.007 0.02651,-0.0425 0.06784,-0.0792 l 0.07514,-0.0668 0.09377,0.0321 c 0.276553,0.0946 0.558339,0.0849 0.754182,-0.0262 0.116697,-0.0661 0.237944,-0.20327 0.303773,-0.34357 0.04861,-0.10359 0.058,-0.14083 0.06353,-0.25198 0.0036,-0.0718 -0.0017,-0.17163 -0.01155,-0.222 -0.0237,-0.12024 -0.133898,-0.34999 -0.227315,-0.47393 -0.286725,-0.38039 -0.829366,-0.6457 -1.32066,-0.6457 H 53.32285 l -0.0608,0.0696 c -0.103286,0.11821 -0.233048,0.1327 -0.346497,0.0387 -0.168364,-0.13948 -0.06096,-0.44113 0.157065,-0.44113 0.07415,0 0.110073,0.0172 0.181299,0.0871 0.05186,0.0508 0.05545,0.0518 0.23375,0.0613 0.541067,0.0286 1.002744,0.23966 1.33444,0.61001 0.251577,0.28089 0.362975,0.54961 0.362412,0.87421 -4.63e-4,0.27145 -0.06686,0.43261 -0.254316,0.6173 -0.114627,0.11294 -0.317714,0.2227 -0.482949,0.26101 -0.117845,0.0273 -0.355919,0.0308 -0.478562,0.007 z m -1.358211,-0.79007 c -0.09552,-0.0613 -0.137188,-0.20511 -0.09407,-0.32458 0.01264,-0.035 0.0038,-0.0646 -0.05827,-0.19519 -0.225563,-0.47447 -0.281912,-0.95681 -0.166192,-1.42258 0.06968,-0.28044 0.178649,-0.48809 0.344842,-0.65706 0.371944,-0.37817 0.877998,-0.39946 1.234377,-0.0519 0.207466,0.20231 0.350577,0.51149 0.384972,0.83169 0.01025,0.0954 0.01021,0.0955 -0.02573,0.0836 -0.148339,-0.0494 -0.138498,-0.0389 -0.173726,-0.18397 -0.04445,-0.18302 -0.09625,-0.31165 -0.177071,-0.4397 -0.181576,-0.28768 -0.423659,-0.39759 -0.721815,-0.32772 -0.241333,0.0565 -0.425059,0.1959 -0.549751,0.41697 -0.242975,0.43077 -0.259702,1.02282 -0.04429,1.5678 0.07282,0.18424 0.09734,0.21397 0.193591,0.23464 0.102207,0.022 0.142912,0.0481 0.184655,0.11873 0.04389,0.0742 0.04463,0.20435 0.0015,0.26564 -0.08044,0.11436 -0.22767,0.15136 -0.333032,0.0837 z"
         id="path841"
         inkscape:connector-curvature="0" />
      <g
         aria-label="R"
         style="font-style:normal;font-variant:normal;font-weight:normal;font-stretch:normal;font-size:10.58333302px;line-height:1.25;font-family:AwkwardTall;-inkscape-font-specification:AwkwardTall;letter-spacing:0px;word-spacing:0px;fill:#ffffff;fill-opacity:1;stroke:#000000;stroke-width:0.26458332;stroke-opacity:0.36893204"
         id="text859"
         transform="matrix(0.79999971,0,0,0.79999971,12.200941,62.12151)">
        <path
           d="m 51.700057,306.49664 v -0.66146 -0.66145 -0.66146 h 0.661458 v 0.66146 0.66145 0.66146 z m -1.322917,0 v -0.66146 -0.66145 -0.66146 -0.66146 -0.66146 -0.66146 -0.66146 h 0.661458 0.661459 0.661458 v 0.66146 0.66146 0.66146 h -0.661458 v -0.66146 -0.66146 h -0.661459 v 0.66146 0.66146 h 0.661459 v 0.66146 h -0.661459 v 0.66146 0.66145 0.66146 z"
           style="stroke-width:0.26458332;stroke:#000000;stroke-opacity:0.36893204;fill:#ffffff;fill-opacity:1"
           id="path861"
           inkscape:connector-curvature="0" />
      </g>
    </g>
  </g>
</svg>
